# xmcd
#
# Track frame offsets:
#	150
#	22330
#	53177
#	78341
#	94038
#	112004
#	125434
#	143450
#	163544
#	185570
#	200468
#	212767
#	234987
#	255592
#	271904
#	294685
#
# Disc length: 4125 seconds
#
# Revision: 6
# Processed by: cddbd v1.5.2PL0 Copyright (c) Steve Scherf et al.
# Submitted via: EasyCDDAExtractor 15.2.1.1
#
DISCID=e5101b10
DTITLE=Συλλογικός δίσκος - 1993 - Σαράντα οκτώ αδέσποτα ρεμπέτικα 1
DYEAR=1993
DGENRE=Ρεμπέτικη
TTITLE0=Ôá ìáëëéÜ óïõ ôá ðëåãìÝíá
TTITLE1=Ãéùñãßôóá
TTITLE2=ÌðáãëáìÜäåò
TTITLE3=ÌùñÞ Íôïõíôïý
TTITLE4=Ç ôñÜôá
TTITLE5=ÁíôñéÜííá ìïõ ãëõêåéÜ
TTITLE6=Ôïí Üëëï ìÞíá
TTITLE7=ÔæéâáÝñé
TTITLE8=Ðüôå ìáýñá - ðüôå Üóðñá
TTITLE9=Áðü ëßãï - ëßãï
TTITLE10=ÌðÜôóïé êáé ÷ùñïöõëÜêïé
TTITLE11=Ìåëá÷ñïéíü ìå ôéò åëéÝò
TTITLE12=Óõñôüò Ðïëßôéêïò
TTITLE13=ÏëìÜæ
TTITLE14=Çóïõíá Îõðüëõôç
TTITLE15=Óìýñíç êáé Êïñäåëéü
EXTD=astos
EXTT0=
EXTT1=
EXTT2=
EXTT3=
EXTT4=
EXTT5=
EXTT6=
EXTT7=
EXTT8=
EXTT9=
EXTT10=
EXTT11=
EXTT12=
EXTT13=
EXTT14=
EXTT15=
PLAYORDER=
